<svg width="24" height="22" viewBox="0 0 24 22" fill="none" xmlns="http://www.w3.org/2000/svg">
<g clip-path="url(#clip0_473_166)">
<circle cx="12" cy="12" r="5" fill="#BB8A52"/>
<path d="M13.7188 0.125C15.5785 0.556504 16.5736 1.83884 16.9609 2.42969C16.9893 2.47318 16.9734 2.5427 17 2.58594C17.0712 2.5843 17.1607 2.5457 17.2344 2.54688C18.0064 2.56193 19.9551 2.80521 21.3359 4.61719C22.4461 6.08096 22.3509 7.60937 22.2344 8.48438C22.424 8.67841 22.6903 8.90845 22.8984 9.22656C23.2642 9.78982 23.8026 10.8612 23.7188 12.2734C23.6117 14.0055 22.7212 15.0827 21.9219 15.75L21.9609 16.8047C21.9388 17.2846 21.8399 17.8711 21.6094 18.4844C21.0132 20.0591 19.6493 21.3874 17.7812 21.7656C16.3566 22.0514 15.1898 21.6626 14.7344 21.4922C14.1852 21.2863 13.7261 21.0287 13.4062 20.8281L12.3906 20.1641L11.7266 19.7734L11.1406 20.1641L9.92969 20.9062C9.4309 21.2137 8.03998 22.0509 6.25781 22C5.11451 21.9635 3.7056 21.5589 2.58594 20.4375C1.55418 19.4001 1.19057 18.181 1.0625 17.4297L0.945312 16.6484L0.828125 15.9062C0.686518 15.0756 0.6119 14.1844 0.671875 13.2891L0.75 11.9609L1.14062 10.2031C1.64504 8.86758 2.58331 7.86707 3.64062 7.19531C3.79377 6.48096 4.07908 5.65858 4.69531 4.89062C5.58038 3.79173 6.70479 3.33256 7.66406 3.09375L7.9375 2.66406L9.34375 1.10156C10.126 0.500478 11.6967 -0.340224 13.7188 0.125Z" fill="#EFEFEF"/>
<circle cx="12" cy="12" r="5" fill="#FECF4D"/>
</g>
<defs>
<clipPath id="clip0_473_166">
<rect width="24" height="22" fill="white"/>
</clipPath>
</defs>
</svg>
